<svg xmlns="http://www.w3.org/2000/svg" width="343" height="84" viewBox="0 0 343 84">
  <path fill="#EF2298" fill-rule="evenodd" stroke="#EF2298" d="M605.016,66.216 C605.058667,66.216 605.229332,66.2266666 605.528,66.248 C605.826668,66.2693334 605.954667,66.3226662 605.912,66.408 C605.826666,66.5360006 605.677334,66.6213331 605.464,66.664 C605.250666,66.7066669 605.101334,66.7706662 605.016,66.856 C601.517316,67.8373382 597.922685,68.690663 594.232,69.416 C590.541315,70.141337 586.584021,70.9093293 582.36,71.72 C582.103999,71.7626669 581.752002,71.8266662 581.304,71.912 C580.855998,71.9973338 580.333336,72.1039994 579.736,72.232 C579.138664,72.3600006 578.49867,72.4879994 577.816,72.616 C577.13333,72.7440006 576.472003,72.8719994 575.832,73 C574.253325,73.2986682 572.568009,73.6399981 570.776,74.024 C570.349331,74.7066701 569.901336,75.3786634 569.432,76.04 C568.962664,76.7013366 568.472003,77.3733299 567.96,78.056 C566.295992,80.4026784 564.589342,82.6853222 562.84,84.904 C561.090658,87.1226778 559.320009,89.3626554 557.528,91.624 C557.613334,91.5813331 557.709333,91.56 557.816,91.56 C557.922667,91.56 558.018666,91.5386669 558.104,91.496 C559.384006,91.2399987 560.67466,90.9946678 561.976,90.76 C563.27734,90.5253322 564.61066,90.3013344 565.976,90.088 C567.170673,89.8746656 568.354661,89.672001 569.528,89.48 C570.701339,89.287999 571.90666,89.1493338 573.144,89.064 L574.328,89.064 C574.605335,89.064 574.839999,89.0853331 575.032,89.128 C575.224001,89.1706669 575.298667,89.2346662 575.256,89.32 C575.170666,89.4906675 575.021334,89.6186662 574.808,89.704 C574.594666,89.7893338 574.402668,89.8746662 574.232,89.96 C572.86666,90.4720026 571.490674,90.9306646 570.104,91.336 C568.717326,91.7413354 567.320007,92.114665 565.912,92.456 C565.186663,92.6693344 564.226673,92.9146653 563.032,93.192 C561.837327,93.4693347 560.642673,93.7359987 559.448,93.992 C558.039993,94.2906682 556.568008,94.610665 555.032,94.952 C554.519997,95.5493363 554.029336,96.1039974 553.56,96.616 C553.175998,97.0853357 552.813335,97.5226646 552.472,97.928 C552.130665,98.3333354 551.896001,98.6213325 551.768,98.792 C549.890657,101.010678 548.045342,103.229322 546.232,105.448 C544.418658,107.666678 542.573343,109.885322 540.696,112.104 C537.069315,116.456022 533.464018,120.765312 529.88,125.032 C526.295982,129.298688 522.648019,133.565312 518.936,137.832 C518.722666,138.045334 518.413335,138.397331 518.008,138.888 C517.602665,139.378669 517.154669,139.890664 516.664,140.424 C516.173331,140.957336 515.693336,141.437331 515.224,141.864 C514.754664,142.290669 514.370668,142.567999 514.072,142.696 C513.986666,142.738667 513.976,142.653334 514.04,142.44 C514.104,142.226666 514.189333,141.981335 514.296,141.704 C514.402667,141.426665 514.519999,141.160001 514.648,140.904 L514.904,140.392 C516.653342,137.447985 518.509324,134.600014 520.472,131.848 C522.434676,129.095986 524.43999,126.35468 526.488,123.624 C529.944017,119.015977 533.421316,114.472022 536.92,109.992 C540.418684,105.511978 543.981315,101.010689 547.608,96.488 L541.464,97.64 C539.41599,98.0240019 537.36801,98.3226656 535.32,98.536 C535.234666,98.536 535.074668,98.5466666 534.84,98.568 C534.605332,98.5893334 534.370668,98.6 534.136,98.6 C533.901332,98.6 533.698668,98.5786669 533.528,98.536 C533.357332,98.4933331 533.335999,98.4293338 533.464,98.344 C533.805335,98.0453318 534.295997,97.7466682 534.936,97.448 C535.576003,97.1493318 536.279996,96.8720013 537.048,96.616 C537.816004,96.3599987 538.57333,96.1253344 539.32,95.912 C540.06667,95.6986656 540.717331,95.5280006 541.272,95.4 C542.50934,95.058665 543.767994,94.7280016 545.048,94.408 C546.328006,94.0879984 547.607994,93.7786682 548.888,93.48 C548.973334,93.4373331 549.090666,93.4053334 549.24,93.384 C549.389334,93.3626666 549.527999,93.3306669 549.656,93.288 C549.826668,93.2453331 549.975999,93.2026669 550.104,93.16 C550.402668,92.818665 550.786664,92.3920026 551.256,91.88 C551.640002,91.4106643 552.119997,90.8346701 552.696,90.152 C553.272003,89.4693299 553.965329,88.6373382 554.776,87.656 C556.568009,85.4799891 558.370658,83.325344 560.184,81.192 C561.997342,79.058656 563.86399,76.9466771 565.784,74.856 C560.663974,75.7520045 555.565359,76.6053293 550.488,77.416 C545.410641,78.2266707 540.290692,78.8453312 535.128,79.272 C533.89066,79.4000006 532.664006,79.4959997 531.448,79.56 C530.231994,79.6240003 529.00534,79.5920006 527.768,79.464 C527.554666,79.4213331 527.309335,79.3786669 527.032,79.336 C526.754665,79.2933331 526.530668,79.1866675 526.36,79.016 C526.231999,78.8453325 526.295999,78.6853341 526.552,78.536 C526.808001,78.3866659 526.978666,78.2906669 527.064,78.248 C527.490669,78.0346656 527.991997,77.8426675 528.568,77.672 C529.144003,77.5013325 529.687997,77.3520006 530.2,77.224 C532.845347,76.498663 535.490653,75.8906691 538.136,75.4 C540.781347,74.9093309 543.447987,74.4293357 546.136,73.96 C550.10402,73.2773299 554.061314,72.6373363 558.008,72.04 C561.954686,71.4426637 565.91198,70.8880026 569.88,70.376 C570.050668,70.2906662 570.295998,70.0986682 570.616,69.8 C570.936002,69.5013318 571.266665,69.1920016 571.608,68.872 C571.949335,68.5519984 572.301332,68.2533347 572.664,67.976 C573.026668,67.6986653 573.357332,67.5386669 573.656,67.496 C573.869334,67.4533331 573.976,67.5493322 573.976,67.784 C573.976,68.0186678 573.933334,68.2853318 573.848,68.584 C573.762666,68.8826682 573.656001,69.1706653 573.528,69.448 C573.399999,69.7253347 573.314667,69.8853331 573.272,69.928 C576.088014,69.5439981 578.893319,69.1706685 581.688,68.808 C584.482681,68.4453315 587.287986,68.093335 590.104,67.752 C592.536012,67.4533318 595.010654,67.1440016 597.528,66.824 C600.045346,66.5039984 602.541321,66.3013338 605.016,66.216 Z M584.184,107.88 C584.226667,107.965334 584.056002,108.178665 583.672,108.52 C583.287998,108.861335 582.840003,109.255998 582.328,109.704 C581.815997,110.152002 581.304003,110.578665 580.792,110.984 C580.279997,111.389335 579.938668,111.677332 579.768,111.848 C579.08533,112.360003 578.413337,112.882664 577.752,113.416 C577.090663,113.949336 576.41867,114.471997 575.736,114.984 C574.711995,115.837338 573.730671,116.690662 572.792,117.544 C571.853329,118.397338 570.914671,119.293329 569.976,120.232 L569.112,121.096 C568.834665,121.373335 568.525335,121.618666 568.184,121.832 C567.586664,122.173335 566.968003,122.205335 566.328,121.928 C565.687997,121.650665 565.346667,121.149337 565.304,120.424 C565.218666,119.74133 565.357332,119.05867 565.72,118.376 C566.082668,117.69333 566.434665,117.096003 566.776,116.584 C567.757338,114.962659 568.781328,113.394674 569.848,111.88 C570.914672,110.365326 571.917329,108.797341 572.856,107.176 C573.026668,106.919999 573.058667,106.600002 572.952,106.216 C572.845333,105.831998 572.749334,105.469335 572.664,105.128 C571.255993,106.408006 569.656009,107.719993 567.864,109.064 C566.071991,110.408007 564.386675,111.613328 562.808,112.68 C561.229325,113.746672 559.874672,114.578664 558.744,115.176 C557.613328,115.773336 557.005334,116.008001 556.92,115.88 C556.877333,115.794666 557.207996,115.474669 557.912,114.92 C558.616004,114.365331 559.501328,113.661338 560.568,112.808 L564.088,109.992 C565.368006,108.967995 566.573328,107.944005 567.704,106.92 C568.834672,105.895995 569.805329,104.936004 570.616,104.04 C571.426671,103.143996 571.895999,102.397336 572.024,101.8 C571.981333,101.074663 571.992,100.264004 572.056,99.368 C572.12,98.4719955 572.450664,97.6826701 573.048,97 C573.560003,96.4453306 574.178663,96.168 574.904,96.168 C575.629337,96.168 576.162665,96.5519962 576.504,97.32 C576.845335,98.0880038 576.866668,98.8239965 576.568,99.528 C576.269332,100.232004 575.949335,100.903997 575.608,101.544 C575.522666,101.757334 575.437334,101.949332 575.352,102.12 C575.266666,102.290668 575.224,102.503999 575.224,102.76 C575.309334,103.357336 575.469332,103.922664 575.704,104.456 C575.938668,104.989336 576.205332,105.554664 576.504,106.152 C576.845335,107.005338 576.941334,107.80533 576.792,108.552 C576.642666,109.29867 576.290669,110.034663 575.736,110.76 C575.223997,111.485337 574.690669,112.22133 574.136,112.968 C573.581331,113.71467 573.048003,114.450663 572.536,115.176 C573.517338,114.535997 574.477329,113.87467 575.416,113.192 C576.354671,112.50933 577.314662,111.848003 578.296,111.208 C578.424001,111.122666 578.786664,110.877335 579.384,110.472 C579.981336,110.066665 580.631996,109.661335 581.336,109.256 C582.040004,108.850665 582.669331,108.488002 583.224,108.168 C583.778669,107.847998 584.098666,107.751999 584.184,107.88 Z M608.792,108.2 C608.792,108.242667 608.728001,108.349332 608.6,108.52 C608.087997,109.032003 607.533336,109.522664 606.936,109.992 L605.144,111.4 C603.181324,112.808007 601.069345,114.450657 598.808,116.328 C598.082663,116.840003 597.432003,117.383997 596.856,117.96 C596.279997,118.536003 595.65067,119.122664 594.968,119.72 C594.797332,119.848001 594.530668,120.050665 594.168,120.328 C593.805332,120.605335 593.581334,120.786666 593.496,120.872 C593.154665,121.213335 592.706669,121.330667 592.152,121.224 C591.597331,121.117333 591.170668,120.872002 590.872,120.488 C590.530665,120.061331 590.413333,119.592003 590.52,119.08 C590.626667,118.567997 590.786666,118.077336 591,117.608 C591.469336,116.541328 591.970664,115.538671 592.504,114.6 C593.037336,113.661329 593.623997,112.701338 594.264,111.72 C593.623997,112.274669 593.005336,112.829331 592.408,113.384 C591.810664,113.938669 591.213336,114.450664 590.616,114.92 C589.677329,115.773338 588.738671,116.583996 587.8,117.352 C586.861329,118.120004 585.880005,118.887996 584.856,119.656 C584.599999,119.869334 584.290668,120.103999 583.928,120.36 C583.565332,120.616001 583.202668,120.818666 582.84,120.968 C582.477332,121.117334 582.104002,121.192 581.72,121.192 C581.335998,121.192 580.973335,121.064001 580.632,120.808 C580.162664,120.466665 579.917333,119.997336 579.896,119.4 C579.874667,118.802664 579.949332,118.269336 580.12,117.8 C580.546669,116.306659 581.239995,114.824007 582.2,113.352 C583.160005,111.879993 584.151995,110.536006 585.176,109.32 C586.200005,108.103994 587.138662,107.090671 587.992,106.28 C588.845338,105.469329 589.399999,104.957334 589.656,104.744 C590.424004,104.018663 591.330661,103.272004 592.376,102.504 C593.421339,101.735996 594.541327,101.04267 595.736,100.424 C596.930673,99.8053302 598.157327,99.3040019 599.416,98.92 C600.674673,98.5359981 601.879994,98.344 603.032,98.344 C603.629336,98.344 604.290663,98.4293325 605.016,98.6 C605.741337,98.7706675 606.274665,99.0906643 606.616,99.56 C606.658667,99.6026669 606.722666,99.6986659 606.808,99.848 C606.893334,99.9973341 606.872001,100.050667 606.744,100.008 C605.591994,99.7093318 604.482672,99.6666656 603.416,99.88 C602.349328,100.093334 601.304005,100.455997 600.28,100.968 C599.255995,101.480003 598.274671,102.10933 597.336,102.856 C596.397329,103.60267 595.480004,104.31733 594.584,105 C593.815996,105.640003 592.984004,106.407996 592.088,107.304 C591.191996,108.200004 590.317338,109.191995 589.464,110.28 C588.610662,111.368005 587.789337,112.519994 587,113.736 C586.210663,114.952006 585.517336,116.199994 584.92,117.48 C586.626675,116.370661 588.429324,115.10134 590.328,113.672 C592.226676,112.24266 594.071991,110.866673 595.864,109.544 C596.717338,108.818663 597.645328,108.104004 598.648,107.4 C599.650672,106.695996 600.621329,105.960004 601.56,105.192 C601.816001,104.978666 602.146665,104.712002 602.552,104.392 C602.957335,104.071998 603.362665,103.773335 603.768,103.496 C604.173335,103.218665 604.535998,102.962668 604.856,102.728 C605.176002,102.493332 605.399999,102.376 605.528,102.376 C605.869335,102.290666 606.146666,102.365332 606.36,102.6 C606.573334,102.834668 606.637334,103.101332 606.552,103.4 C606.552,103.485334 606.466668,103.634666 606.296,103.848 C606.125332,104.061334 605.933334,104.295999 605.72,104.552 C605.506666,104.808001 605.304001,105.042666 605.112,105.256 C604.919999,105.469334 604.802667,105.618666 604.76,105.704 C604.07733,106.472004 603.320004,107.367995 602.488,108.392 C601.655996,109.416005 600.845337,110.407995 600.056,111.368 C599.266663,112.328005 598.584003,113.170663 598.008,113.896 C597.431997,114.621337 597.058668,115.090666 596.888,115.304 C597.272002,115.047999 597.794663,114.706669 598.456,114.28 C599.117337,113.853331 599.639998,113.490668 600.024,113.192 C601.218673,112.381329 602.43466,111.60267 603.672,110.856 C604.90934,110.10933 606.189327,109.39467 607.512,108.712 C607.597334,108.626666 607.810665,108.498668 608.152,108.328 C608.493335,108.157332 608.706666,108.114666 608.792,108.2 Z M634.68,108.968 C634.722667,109.053334 634.637334,109.202666 634.424,109.416 C634.210666,109.629334 633.965335,109.853332 633.688,110.088 C633.410665,110.322668 633.133335,110.546666 632.856,110.76 C632.578665,110.973334 632.418667,111.101333 632.376,111.144 C631.906664,111.528002 631.426669,111.911998 630.936,112.296 C630.445331,112.680002 629.944003,113.063998 629.432,113.448 C628.06666,114.557339 626.616008,115.634661 625.08,116.68 C623.543992,117.725339 622.09334,118.93066 620.728,120.296 C620.514666,120.466668 620.290668,120.647999 620.056,120.84 C619.821332,121.032001 619.565335,121.191999 619.288,121.32 C619.010665,121.448001 618.733335,121.512 618.456,121.512 C618.178665,121.512 617.890668,121.384001 617.592,121.128 C617.079997,120.786665 616.834667,120.232004 616.856,119.464 C616.877333,118.695996 617.026665,117.874671 617.304,117 C617.581335,116.125329 617.911998,115.282671 618.296,114.472 C618.680002,113.661329 618.999999,113.021336 619.256,112.552 C619.853336,111.399994 620.642662,110.14134 621.624,108.776 C622.605338,107.41066 623.479996,106.216005 624.248,105.192 C622.797326,106.088004 621.442673,106.90933 620.184,107.656 C618.925327,108.40267 617.656006,109.287995 616.376,110.312 C615.095994,111.336005 613.77334,112.583993 612.408,114.056 C611.04266,115.528007 609.570675,117.458655 607.992,119.848 C607.821332,120.061334 607.650668,120.285332 607.48,120.52 C607.309332,120.754668 607.096001,120.914666 606.84,121 C606.370664,121.213334 605.890669,121.181335 605.4,120.904 C604.909331,120.626665 604.664,120.210669 604.664,119.656 C604.578666,118.97333 604.951996,117.874674 605.784,116.36 C606.616004,114.845326 607.735993,113.160009 609.144,111.304 C610.552007,109.447991 612.162658,107.517343 613.976,105.512 C615.789342,103.506657 617.65599,101.693341 619.576,100.072 C620.002669,99.730665 620.471997,99.3573354 620.984,98.952 C621.496003,98.5466646 621.943998,98.3013338 622.328,98.216 C622.413334,98.216 622.381334,98.3439987 622.232,98.6 C622.082666,98.8560013 621.880001,99.1653315 621.624,99.528 C621.367999,99.8906685 621.101335,100.263998 620.824,100.648 C620.546665,101.032002 620.322668,101.351999 620.152,101.608 C619.341329,102.717339 618.680003,103.634663 618.168,104.36 C617.655997,105.085337 617.165336,105.78933 616.696,106.472 C616.226664,107.15467 615.704003,107.890663 615.128,108.68 C614.551997,109.469337 613.773338,110.503994 612.792,111.784 C614.285341,110.589327 615.874658,109.298674 617.56,107.912 C619.245342,106.525326 620.919992,105.170673 622.584,103.848 C624.248008,102.525327 625.837326,101.330672 627.352,100.264 C628.866674,99.197328 630.221327,98.3866694 631.416,97.832 C632.013336,97.5759987 632.631997,97.618665 633.272,97.96 C633.741336,98.2160013 634.039999,98.610664 634.168,99.144 C634.296001,99.677336 634.189335,100.157331 633.848,100.584 C633.207997,101.565338 632.322672,102.610661 631.192,103.72 C630.061328,104.829339 629.048004,105.895995 628.152,106.92 C627.255996,107.944005 626.392004,108.989328 625.56,110.056 C624.727996,111.122672 623.949337,112.231994 623.224,113.384 C622.797331,114.06667 622.360002,114.770663 621.912,115.496 C621.463998,116.221337 621.112001,116.989329 620.856,117.8 C621.709338,117.11733 622.583996,116.46667 623.48,115.848 C624.376004,115.22933 625.271996,114.621336 626.168,114.024 L627.032,113.448 C627.480002,113.149332 628.01333,112.797335 628.632,112.392 C629.25067,111.986665 629.90133,111.560002 630.584,111.112 C631.26667,110.663998 631.906664,110.269335 632.504,109.928 C633.101336,109.586665 633.602665,109.320001 634.008,109.128 C634.413335,108.935999 634.637333,108.882666 634.68,108.968 Z M661.208,107.816 C661.336001,107.944001 661.080003,108.338663 660.44,109 C659.799997,109.661337 659.074671,110.375996 658.264,111.144 C657.453329,111.912004 656.67467,112.615997 655.928,113.256 C655.18133,113.896003 654.786667,114.237333 654.744,114.28 C653.634661,115.176004 652.525339,116.039996 651.416,116.872 C650.306661,117.704004 649.13334,118.482663 647.896,119.208 C647.170663,119.634669 646.392004,120.061331 645.56,120.488 C644.727996,120.914669 643.864004,121.191999 642.968,121.32 C643.266668,121.789336 643.416,122.36533 643.416,123.048 C643.458667,123.986671 643.245336,124.882662 642.776,125.736 C642.306664,126.589338 641.69867,127.378663 640.952,128.104 C640.20533,128.829337 639.352005,129.469331 638.392,130.024 C637.431995,130.578669 636.504004,131.005332 635.608,131.304 C635.522666,131.346667 635.352001,131.410666 635.096,131.496 C634.839999,131.581334 634.573335,131.666666 634.296,131.752 C634.018665,131.837334 633.752001,131.88 633.496,131.88 C633.239999,131.88 633.090667,131.816001 633.048,131.688 C633.005333,131.559999 633.133332,131.410668 633.432,131.24 C633.730668,131.069332 633.922666,130.941334 634.008,130.856 C634.861338,130.301331 635.703996,129.71467 636.536,129.096 C637.368004,128.47733 638.146663,127.805337 638.872,127.08 C639.341336,126.610664 639.778665,126.130669 640.184,125.64 C640.589335,125.149331 640.919999,124.605336 641.176,124.008 C641.474668,123.410664 641.624,122.856003 641.624,122.344 C641.624,122.258666 641.613333,122.130668 641.592,121.96 C641.570667,121.789332 641.56,121.618668 641.56,121.448 C641.431999,121.405333 641.304001,121.384 641.176,121.384 C641.047999,121.384 640.898668,121.362667 640.728,121.32 C640.087997,121.149332 639.586668,120.861335 639.224,120.456 C638.861332,120.050665 638.616001,119.581336 638.488,119.048 C638.359999,118.514664 638.328,117.949336 638.392,117.352 C638.456,116.754664 638.573332,116.200003 638.744,115.688 C639.085335,114.407994 639.586663,113.181339 640.248,112.008 C640.909337,110.834661 641.623996,109.736005 642.392,108.712 C643.160004,107.645328 644.013329,106.664004 644.952,105.768 C645.890671,104.871996 646.871995,104.018671 647.896,103.208 C648.920005,102.439996 649.997328,101.704004 651.128,101 C652.258672,100.295996 653.463994,99.773335 654.744,99.432 C655.256003,99.2613325 655.799997,99.1973331 656.376,99.24 C656.952003,99.2826669 657.463998,99.4213322 657.912,99.656 C658.360002,99.8906678 658.701332,100.242664 658.936,100.712 C659.170668,101.181336 659.202668,101.778663 659.032,102.504 C658.861332,103.101336 658.605335,103.655997 658.264,104.168 C657.922665,104.680003 657.538669,105.170664 657.112,105.64 C656.130662,106.621338 655.128005,107.474663 654.104,108.2 C653.591997,108.584002 653.058669,108.957332 652.504,109.32 C651.949331,109.682668 651.373336,110.013332 650.776,110.312 C650.733333,110.312 650.605334,110.365333 650.392,110.472 C650.178666,110.578667 650.093333,110.589334 650.136,110.504 C650.178667,110.375999 650.466664,110.034669 651,109.48 C651.533336,108.925331 652.130663,108.27467 652.792,107.528 C653.453337,106.78133 654.071997,105.992004 654.648,105.16 C655.224003,104.327996 655.575999,103.592003 655.704,102.952 C654.978663,103.293335 654.27467,103.698664 653.592,104.168 C652.90933,104.637336 652.269336,105.127997 651.672,105.64 C651.031997,106.152003 650.40267,106.663997 649.784,107.176 C649.16533,107.688003 648.557336,108.242664 647.96,108.84 C646.807994,109.949339 645.645339,111.197326 644.472,112.584 C643.298661,113.970674 642.413336,115.410659 641.816,116.904 C641.730666,117.117334 641.634667,117.383998 641.528,117.704 C641.421333,118.024002 641.431999,118.290666 641.56,118.504 C641.645334,118.632001 641.805332,118.696 642.04,118.696 C642.274668,118.696 642.541332,118.664 642.84,118.6 C643.138668,118.536 643.415999,118.472 643.672,118.408 C643.928001,118.344 644.119999,118.290667 644.248,118.248 C645.442673,117.906665 646.594661,117.42667 647.704,116.808 C648.813339,116.18933 649.901328,115.560003 650.968,114.92 C652.20534,114.194663 653.410661,113.416004 654.584,112.584 C655.757339,111.751996 656.919994,110.909338 658.072,110.056 L659.8,108.712 C659.842667,108.669333 659.927999,108.594667 660.056,108.488 C660.184001,108.381333 660.322666,108.264001 660.472,108.136 C660.621334,108.007999 660.770666,107.912 660.92,107.848 C661.069334,107.784 661.165333,107.773333 661.208,107.816 Z M678.456,98.472 C679.010669,98.6426675 679.458665,98.9306646 679.8,99.336 C680.141335,99.7413354 680.290667,99.9226669 680.248,99.88 C680.119999,99.8373331 679.938668,99.7840003 679.704,99.72 C679.469332,99.6559997 679.138669,99.6026669 678.712,99.56 C677.901329,99.4746662 677.090671,99.5493322 676.28,99.784 C675.469329,100.018668 674.658671,100.359998 673.848,100.808 C673.037329,101.256002 672.216004,101.78933 671.384,102.408 C670.551996,103.02667 669.709338,103.67733 668.856,104.36 C668.471998,104.701335 667.768005,105.383995 666.744,106.408 C665.719995,107.432005 664.685339,108.615993 663.64,109.96 C662.594661,111.304007 661.677337,112.711993 660.888,114.184 C660.098663,115.656007 659.704,116.989327 659.704,118.184 C660.94134,118.013332 662.391992,117.405339 664.056,116.36 C665.720008,115.314661 667.341325,114.07734 668.92,112.648 C670.498675,111.21866 671.927994,109.704008 673.208,108.104 C674.488006,106.503992 675.362664,105.042673 675.832,103.72 C676.002668,103.293331 676.109333,102.877335 676.152,102.472 C676.194667,102.066665 676.152001,101.629336 676.024,101.16 C675.938666,100.903999 675.896,100.754667 675.896,100.712 C675.938667,100.541332 676.119998,100.637332 676.44,101 C676.760002,101.362668 676.983999,101.799997 677.112,102.312 C677.624003,104.23201 677.378672,106.21599 676.376,108.264 C675.373328,110.31201 673.986676,112.210658 672.216,113.96 C670.445324,115.709342 668.504011,117.223994 666.392,118.504 C664.279989,119.784006 662.370675,120.637331 660.664,121.064 C659.511994,121.405335 658.424005,121.405335 657.4,121.064 C656.546662,120.722665 655.949335,120.125338 655.608,119.272 C655.266665,118.418662 655.159999,117.565338 655.288,116.712 C655.458668,115.602661 655.767998,114.546672 656.216,113.544 C656.664002,112.541328 657.22933,111.549338 657.912,110.568 C658.509336,109.714662 659.255996,108.776005 660.152,107.752 C661.048004,106.727995 662.061328,105.714672 663.192,104.712 C664.322672,103.709328 665.53866,102.749338 666.84,101.832 C668.14134,100.914662 669.453327,100.157336 670.776,99.56 C672.098673,98.9626637 673.41066,98.5466678 674.712,98.312 C676.01334,98.0773322 677.261327,98.130665 678.456,98.472 Z M694.744,107.624 C694.829334,107.538666 695.053332,107.410668 695.416,107.24 C695.778668,107.069332 695.981333,107.026666 696.024,107.112 L696.024,107.208 C696.024,107.229333 695.960001,107.303999 695.832,107.432 C694.253325,108.882674 692.642675,110.237327 691,111.496 C689.357325,112.754673 687.725341,114.06666 686.104,115.432 C685.42133,116.029336 684.578672,116.797329 683.576,117.736 C682.573328,118.674671 681.752003,119.442664 681.112,120.04 C680.855999,120.253334 680.568002,120.477332 680.248,120.712 C679.927998,120.946668 679.586668,121.138666 679.224,121.288 C678.861332,121.437334 678.498668,121.490667 678.136,121.448 C677.773332,121.405333 677.400002,121.213335 677.016,120.872 C676.674665,120.530665 676.557333,120.061336 676.664,119.464 C676.770667,118.866664 676.930666,118.333336 677.144,117.864 C677.570669,116.797328 678.231996,115.592007 679.128,114.248 C680.024004,112.903993 681.037328,111.528007 682.168,110.12 C683.298672,108.711993 684.471994,107.336007 685.688,105.992 C686.904006,104.647993 688.045328,103.442672 689.112,102.376 C690.178672,101.309328 691.095996,100.43467 691.864,99.752 C692.632004,99.0693299 693.143999,98.6853338 693.4,98.6 C693.698668,98.4719994 693.933332,98.4506662 694.104,98.536 C694.189334,98.5786669 694.264,98.6426662 694.328,98.728 C694.392,98.8133338 694.381334,98.9413325 694.296,99.112 C693.741331,100.136005 693.080004,101.245327 692.312,102.44 C691.543996,103.634673 690.712004,104.88266 689.816,106.184 C688.919996,107.48534 687.992005,108.829326 687.032,110.216 C686.071995,111.602674 685.144004,113.021326 684.248,114.472 C684.632002,114.173332 685.143997,113.800002 685.784,113.352 C686.424003,112.903998 686.935998,112.552001 687.32,112.296 C688.55734,111.485329 689.773327,110.685337 690.968,109.896 C692.162673,109.106663 693.421327,108.349337 694.744,107.624 Z M701.912,88.36 C702.040001,88.701335 702.050667,89.0533315 701.944,89.416 C701.837333,89.7786685 701.666668,90.1199984 701.432,90.44 C701.197332,90.7600016 700.930668,91.0479987 700.632,91.304 C700.333332,91.5600013 700.034668,91.7519994 699.736,91.88 C699.479999,92.0080006 699.170668,92.1039997 698.808,92.168 C698.445332,92.2320003 698.093335,92.2533334 697.752,92.232 C697.410665,92.2106666 697.090668,92.1360006 696.792,92.008 C696.493332,91.8799994 696.280001,91.645335 696.152,91.304 C695.895999,90.6213299 695.981331,89.9706698 696.408,89.352 C696.834669,88.7333302 697.325331,88.2746682 697.88,87.976 C698.136001,87.8053325 698.455998,87.6666672 698.84,87.56 C699.224002,87.4533328 699.618665,87.4 700.024,87.4 C700.429335,87.4 700.802665,87.4639994 701.144,87.592 C701.485335,87.7200006 701.741332,87.9759981 701.912,88.36 Z M711.544,98.6 C711.586667,99.0693357 711.501334,99.4959981 711.288,99.88 C711.074666,100.264002 710.808002,100.615998 710.488,100.936 C710.167998,101.256002 709.826668,101.565332 709.464,101.864 C709.101332,102.162668 708.813334,102.503998 708.6,102.888 C708.173331,103.613337 707.800002,104.381329 707.48,105.192 C707.159998,106.002671 706.872001,106.813329 706.616,107.624 C706.359999,108.520004 706.114668,109.383996 705.88,110.216 C705.645332,111.048004 705.421334,111.890662 705.208,112.744 C704.781331,114.237341 704.120004,115.645327 703.224,116.968 C702.327996,118.290673 701.19734,119.314663 699.832,120.04 C698.210659,120.850671 696.610675,121.192001 695.032,121.064 C694.178662,120.935999 693.474669,120.701335 692.92,120.36 C692.877333,120.36 692.749334,120.296001 692.536,120.168 C692.322666,120.039999 692.098668,119.912001 691.864,119.784 C691.629332,119.655999 691.437334,119.517334 691.288,119.368 C691.138666,119.218666 691.085333,119.101334 691.128,119.016 C691.170667,118.930666 691.405331,118.962666 691.832,119.112 C692.258669,119.261334 692.514666,119.336 692.6,119.336 C693.154669,119.506668 693.77333,119.592 694.456,119.592 C695.69334,119.506666 696.781329,119.101337 697.72,118.376 C698.530671,117.778664 699.266663,116.989338 699.928,116.008 C700.589337,115.026662 700.983999,114.045338 701.112,113.064 C701.282668,112.082662 701.442666,111.069339 701.592,110.024 C701.741334,108.978661 701.879999,107.901339 702.008,106.792 C700.941328,107.773338 699.618675,108.818661 698.04,109.928 C696.461325,111.037339 694.914674,112.050662 693.4,112.968 C691.885326,113.885338 690.573339,114.631997 689.464,115.208 C688.354661,115.784003 687.736001,116.008001 687.608,115.88 C687.522666,115.751999 688.087994,115.229338 689.304,114.312 C690.520006,113.394662 691.991991,112.264007 693.72,110.92 C695.448009,109.575993 697.218658,108.093341 699.032,106.472 C700.845342,104.850659 702.306661,103.250675 703.416,101.672 C703.800002,101.074664 704.183998,100.488003 704.568,99.912 C704.952002,99.3359971 705.378664,98.7493363 705.848,98.152 C706.317336,97.6826643 706.839997,97.277335 707.416,96.936 C707.992003,96.594665 708.62133,96.424 709.304,96.424 C709.901336,96.424 710.413331,96.6373312 710.84,97.064 C711.266669,97.4906688 711.501333,98.0026637 711.544,98.6 Z M809.208,72.232 C808.951999,73.9813421 808.386671,75.6026592 807.512,77.096 C806.637329,78.5893408 805.570673,79.9759936 804.312,81.256 C803.053327,82.5360064 801.688007,83.709328 800.216,84.776 C798.743993,85.842672 797.304007,86.8239955 795.896,87.72 C791.373311,90.5360141 786.509359,92.8613242 781.304,94.696 C779.810659,95.2506694 778.264008,95.7626643 776.664,96.232 C775.063992,96.7013357 773.453341,97.106665 771.832,97.448 C771.661332,97.6186675 771.384002,97.9386643 771,98.408 C770.615998,98.8773357 770.189336,99.378664 769.72,99.912 C769.250664,100.445336 768.802669,100.967997 768.376,101.48 L767.416,102.632 C763.661315,106.898688 759.949352,111.122646 756.28,115.304 C752.610648,119.485354 748.877352,123.687979 745.08,127.912 C744.183996,128.893338 743.288004,129.863995 742.392,130.824 C741.495996,131.784005 740.578671,132.754662 739.64,133.736 C739.255998,134.162669 738.861335,134.589331 738.456,135.016 C738.050665,135.442669 737.613336,135.847998 737.144,136.232 L736.568,136.712 C736.439999,136.818667 736.322667,136.893333 736.216,136.936 C736.109333,136.978667 736.056,136.957334 736.056,136.872 C736.141334,136.615999 736.258666,136.328002 736.408,136.008 C736.557334,135.687998 736.738666,135.378668 736.952,135.08 C737.976005,133.415992 739.074661,131.805341 740.248,130.248 C741.421339,128.690659 742.583994,127.122675 743.736,125.544 C747.064017,121.021311 750.455983,116.562689 753.912,112.168 C757.368017,107.773311 760.909315,103.378689 764.536,98.984 L762.232,99.368 C761.463996,99.4960006 760.696004,99.6026662 759.928,99.688 C757.794656,100.029335 755.672011,100.274666 753.56,100.424 C751.447989,100.573334 749.304011,100.605334 747.128,100.52 C746.914666,100.477333 746.712001,100.445333 746.52,100.424 C746.327999,100.402667 746.168001,100.349334 746.04,100.264 C745.954666,100.221333 745.997332,100.146667 746.168,100.04 C746.338668,99.9333328 746.541332,99.8373338 746.776,99.752 C747.010668,99.6666662 747.245332,99.5920003 747.48,99.528 C747.714668,99.4639997 747.853333,99.432 747.896,99.432 C748.536003,99.3039994 749.463994,99.0906682 750.68,98.792 C751.896006,98.4933318 753.250659,98.1840016 754.744,97.864 C756.237341,97.5439984 757.762659,97.2026685 759.32,96.84 C760.877341,96.4773315 762.30666,96.1360016 763.608,95.816 C764.90934,95.4959984 765.997329,95.2080013 766.872,94.952 C767.746671,94.6959987 768.226666,94.5253338 768.312,94.44 C768.824003,93.8853306 769.261332,93.3946688 769.624,92.968 C769.986668,92.5413312 770.317332,92.1466685 770.616,91.784 C770.914668,91.4213315 771.213332,91.069335 771.512,90.728 C771.810668,90.386665 772.151998,90.0026688 772.536,89.576 C774.328009,87.4853229 776.141324,85.4266768 777.976,83.4 C779.810676,81.3733232 781.730657,79.4000096 783.736,77.48 C784.376003,76.8399968 785.090663,76.2000032 785.88,75.56 C786.669337,74.9199968 787.383997,74.3653357 788.024,73.896 C788.152001,73.8106662 788.354665,73.6826675 788.632,73.512 C788.909335,73.3413325 789.090666,73.3413325 789.176,73.512 C789.304001,73.7680013 789.240001,74.1946637 788.984,74.792 C788.727999,75.3893363 788.418668,76.0079968 788.056,76.648 C787.693332,77.2880032 787.320002,77.8853306 786.936,78.44 C786.551998,78.9946694 786.296001,79.3573325 786.168,79.528 C784.589325,81.7893446 782.946675,83.9759894 781.24,86.088 C779.533325,88.2000106 777.805342,90.322656 776.056,92.456 C779.853352,91.2613274 783.661314,89.9386739 787.48,88.488 C791.298686,87.0373261 794.871983,85.1813446 798.2,82.92 C799.266672,82.194663 800.279995,81.4373373 801.24,80.648 C802.200005,79.8586627 803.106662,78.9946714 803.96,78.056 C804.429336,77.5439974 804.877331,76.9680032 805.304,76.328 C805.730669,75.6879968 806.039999,75.0160035 806.232,74.312 C806.424001,73.6079965 806.477334,72.9146701 806.392,72.232 C806.306666,71.5493299 806.008003,70.8880032 805.496,70.248 C804.642662,69.2239949 803.576006,68.445336 802.296,67.912 C801.015994,67.378664 799.75734,66.9626682 798.52,66.664 C795.831987,66.0239968 793.048014,65.6933334 790.168,65.672 C787.287986,65.6506666 784.48268,65.7466656 781.752,65.96 C775.991971,66.3440019 770.296028,67.1759936 764.664,68.456 C759.287973,69.6933395 754.050692,71.2613238 748.952,73.16 C743.853308,75.0586762 738.850691,77.2666541 733.944,79.784 C733.389331,80.0826682 732.845336,80.3706653 732.312,80.648 C731.778664,80.9253347 731.234669,81.1919987 730.68,81.448 C730.637333,81.4906669 730.498668,81.5546662 730.264,81.64 C730.029332,81.7253338 729.933333,81.7466669 729.976,81.704 C730.061334,81.4906656 730.221332,81.2986675 730.456,81.128 C730.690668,80.9573325 730.871999,80.8293338 731,80.744 C731.981338,80.018663 732.951995,79.3253366 733.912,78.664 C734.872005,78.0026634 735.842662,77.3733363 736.824,76.776 C739.341346,75.1973254 742.199984,73.6186746 745.4,72.04 C748.600016,70.4613254 752.013315,68.9893402 755.64,67.624 C759.266685,66.2586598 763.021314,65.0640051 766.904,64.04 C770.786686,63.0159949 774.658647,62.2586691 778.52,61.768 C782.381353,61.2773309 786.178648,61.127999 789.912,61.32 C793.645352,61.512001 797.15465,62.141328 800.44,63.208 C801.464005,63.549335 802.487995,63.9759974 803.512,64.488 C804.536005,65.0000026 805.474662,65.6293296 806.328,66.376 C807.181338,67.1226704 807.874664,67.9866618 808.408,68.968 C808.941336,69.9493382 809.208,71.0373274 809.208,72.232 Z M812.824,108.2 C812.824,108.242667 812.760001,108.349332 812.632,108.52 C812.119997,109.032003 811.565336,109.522664 810.968,109.992 L809.176,111.4 C807.213324,112.808007 805.101345,114.450657 802.84,116.328 C802.114663,116.840003 801.464003,117.383997 800.888,117.96 C800.311997,118.536003 799.68267,119.122664 799,119.72 C798.829332,119.848001 798.562668,120.050665 798.2,120.328 C797.837332,120.605335 797.613334,120.786666 797.528,120.872 C797.186665,121.213335 796.738669,121.330667 796.184,121.224 C795.629331,121.117333 795.202668,120.872002 794.904,120.488 C794.562665,120.061331 794.445333,119.592003 794.552,119.08 C794.658667,118.567997 794.818666,118.077336 795.032,117.608 C795.501336,116.541328 796.002664,115.538671 796.536,114.6 C797.069336,113.661329 797.655997,112.701338 798.296,111.72 C797.655997,112.274669 797.037336,112.829331 796.44,113.384 C795.842664,113.938669 795.245336,114.450664 794.648,114.92 C793.709329,115.773338 792.770671,116.583996 791.832,117.352 C790.893329,118.120004 789.912005,118.887996 788.888,119.656 C788.631999,119.869334 788.322668,120.103999 787.96,120.36 C787.597332,120.616001 787.234668,120.818666 786.872,120.968 C786.509332,121.117334 786.136002,121.192 785.752,121.192 C785.367998,121.192 785.005335,121.064001 784.664,120.808 C784.194664,120.466665 783.949333,119.997336 783.928,119.4 C783.906667,118.802664 783.981332,118.269336 784.152,117.8 C784.578669,116.306659 785.271995,114.824007 786.232,113.352 C787.192005,111.879993 788.183995,110.536006 789.208,109.32 C790.232005,108.103994 791.170662,107.090671 792.024,106.28 C792.877338,105.469329 793.431999,104.957334 793.688,104.744 C794.456004,104.018663 795.362661,103.272004 796.408,102.504 C797.453339,101.735996 798.573327,101.04267 799.768,100.424 C800.962673,99.8053302 802.189327,99.3040019 803.448,98.92 C804.706673,98.5359981 805.911994,98.344 807.064,98.344 C807.661336,98.344 808.322663,98.4293325 809.048,98.6 C809.773337,98.7706675 810.306665,99.0906643 810.648,99.56 C810.690667,99.6026669 810.754666,99.6986659 810.84,99.848 C810.925334,99.9973341 810.904001,100.050667 810.776,100.008 C809.623994,99.7093318 808.514672,99.6666656 807.448,99.88 C806.381328,100.093334 805.336005,100.455997 804.312,100.968 C803.287995,101.480003 802.306671,102.10933 801.368,102.856 C800.429329,103.60267 799.512004,104.31733 798.616,105 C797.847996,105.640003 797.016004,106.407996 796.12,107.304 C795.223996,108.200004 794.349338,109.191995 793.496,110.28 C792.642662,111.368005 791.821337,112.519994 791.032,113.736 C790.242663,114.952006 789.549336,116.199994 788.952,117.48 C790.658675,116.370661 792.461324,115.10134 794.36,113.672 C796.258676,112.24266 798.103991,110.866673 799.896,109.544 C800.749338,108.818663 801.677328,108.104004 802.68,107.4 C803.682672,106.695996 804.653329,105.960004 805.592,105.192 C805.848001,104.978666 806.178665,104.712002 806.584,104.392 C806.989335,104.071998 807.394665,103.773335 807.8,103.496 C808.205335,103.218665 808.567998,102.962668 808.888,102.728 C809.208002,102.493332 809.431999,102.376 809.56,102.376 C809.901335,102.290666 810.178666,102.365332 810.392,102.6 C810.605334,102.834668 810.669334,103.101332 810.584,103.4 C810.584,103.485334 810.498668,103.634666 810.328,103.848 C810.157332,104.061334 809.965334,104.295999 809.752,104.552 C809.538666,104.808001 809.336001,105.042666 809.144,105.256 C808.951999,105.469334 808.834667,105.618666 808.792,105.704 C808.10933,106.472004 807.352004,107.367995 806.52,108.392 C805.687996,109.416005 804.877337,110.407995 804.088,111.368 C803.298663,112.328005 802.616003,113.170663 802.04,113.896 C801.463997,114.621337 801.090668,115.090666 800.92,115.304 C801.304002,115.047999 801.826663,114.706669 802.488,114.28 C803.149337,113.853331 803.671998,113.490668 804.056,113.192 C805.250673,112.381329 806.46666,111.60267 807.704,110.856 C808.94134,110.10933 810.221327,109.39467 811.544,108.712 C811.629334,108.626666 811.842665,108.498668 812.184,108.328 C812.525335,108.157332 812.738666,108.114666 812.824,108.2 Z M850.296,64.232 C850.381334,64.3173338 850.392,64.455999 850.328,64.648 C850.264,64.840001 850.178667,65.0533322 850.072,65.288 C849.965333,65.5226678 849.858667,65.7466656 849.752,65.96 L849.528,66.408 C848.205327,68.7973453 846.808007,71.1226554 845.336,73.384 C843.863993,75.6453446 842.381341,77.9066554 840.888,80.168 C839.266659,82.5573453 837.634675,84.914655 835.992,87.24 C834.349325,89.565345 832.696008,91.9013216 831.032,94.248 C828.855989,97.2773485 826.658678,100.263985 824.44,103.208 C822.221322,106.152015 820.002678,109.117318 817.784,112.104 C817.442665,112.573336 817.090668,113.042664 816.728,113.512 C816.365332,113.981336 816.013335,114.450664 815.672,114.92 C818.616015,112.829323 821.602652,110.866676 824.632,109.032 C824.674667,108.989333 824.813332,108.893334 825.048,108.744 C825.282668,108.594666 825.549332,108.445334 825.848,108.296 C826.146668,108.146666 826.423999,108.018667 826.68,107.912 C826.936001,107.805333 827.106666,107.773333 827.192,107.816 C827.277334,107.858667 827.224001,107.954666 827.032,108.104 C826.839999,108.253334 826.637334,108.434666 826.424,108.648 C825.655996,109.33067 824.877337,109.98133 824.088,110.6 C823.298663,111.21867 822.520004,111.847997 821.752,112.488 C820.599994,113.384004 819.469339,114.279996 818.36,115.176 C817.250661,116.072004 816.141339,117.010662 815.032,117.992 C814.605331,118.333335 814.189335,118.695998 813.784,119.08 C813.378665,119.464002 812.962669,119.847998 812.536,120.232 C812.194665,120.530668 811.832002,120.786666 811.448,121 C811.063998,121.213334 810.637336,121.234668 810.168,121.064 C809.357329,120.807999 808.930667,120.296004 808.888,119.528 C808.845333,118.930664 809.005332,118.29067 809.368,117.608 C809.730668,116.92533 810.061332,116.349336 810.36,115.88 C812.706678,112.167981 815.24532,108.477352 817.976,104.808 C820.109344,101.949319 822.103991,99.2293462 823.96,96.648 C825.816009,94.0666538 827.76799,91.4106803 829.816,88.68 C831.522675,86.3759885 833.239991,84.0933446 834.968,81.832 C836.696009,79.5706554 838.477324,77.3306778 840.312,75.112 C841.592006,73.5759923 842.861327,72.0186746 844.12,70.44 C845.378673,68.8613254 846.711993,67.368007 848.12,65.96 L849.176,64.904 C849.410668,64.6693322 849.634666,64.4880006 849.848,64.36 C850.061334,64.2319994 850.210666,64.1893331 850.296,64.232 Z M851.736,108.2 C851.736,108.242667 851.672001,108.349332 851.544,108.52 C851.031997,109.032003 850.477336,109.522664 849.88,109.992 L848.088,111.4 C846.125324,112.808007 844.013345,114.450657 841.752,116.328 C841.026663,116.840003 840.376003,117.383997 839.8,117.96 C839.223997,118.536003 838.59467,119.122664 837.912,119.72 C837.741332,119.848001 837.474668,120.050665 837.112,120.328 C836.749332,120.605335 836.525334,120.786666 836.44,120.872 C836.098665,121.213335 835.650669,121.330667 835.096,121.224 C834.541331,121.117333 834.114668,120.872002 833.816,120.488 C833.474665,120.061331 833.357333,119.592003 833.464,119.08 C833.570667,118.567997 833.730666,118.077336 833.944,117.608 C834.413336,116.541328 834.914664,115.538671 835.448,114.6 C835.981336,113.661329 836.567997,112.701338 837.208,111.72 C836.567997,112.274669 835.949336,112.829331 835.352,113.384 C834.754664,113.938669 834.157336,114.450664 833.56,114.92 C832.621329,115.773338 831.682671,116.583996 830.744,117.352 C829.805329,118.120004 828.824005,118.887996 827.8,119.656 C827.543999,119.869334 827.234668,120.103999 826.872,120.36 C826.509332,120.616001 826.146668,120.818666 825.784,120.968 C825.421332,121.117334 825.048002,121.192 824.664,121.192 C824.279998,121.192 823.917335,121.064001 823.576,120.808 C823.106664,120.466665 822.861333,119.997336 822.84,119.4 C822.818667,118.802664 822.893332,118.269336 823.064,117.8 C823.490669,116.306659 824.183995,114.824007 825.144,113.352 C826.104005,111.879993 827.095995,110.536006 828.12,109.32 C829.144005,108.103994 830.082662,107.090671 830.936,106.28 C831.789338,105.469329 832.343999,104.957334 832.6,104.744 C833.368004,104.018663 834.274661,103.272004 835.32,102.504 C836.365339,101.735996 837.485327,101.04267 838.68,100.424 C839.874673,99.8053302 841.101327,99.3040019 842.36,98.92 C843.618673,98.5359981 844.823994,98.344 845.976,98.344 C846.573336,98.344 847.234663,98.4293325 847.96,98.6 C848.685337,98.7706675 849.218665,99.0906643 849.56,99.56 C849.602667,99.6026669 849.666666,99.6986659 849.752,99.848 C849.837334,99.9973341 849.816001,100.050667 849.688,100.008 C848.535994,99.7093318 847.426672,99.6666656 846.36,99.88 C845.293328,100.093334 844.248005,100.455997 843.224,100.968 C842.199995,101.480003 841.218671,102.10933 840.28,102.856 C839.341329,103.60267 838.424004,104.31733 837.528,105 C836.759996,105.640003 835.928004,106.407996 835.032,107.304 C834.135996,108.200004 833.261338,109.191995 832.408,110.28 C831.554662,111.368005 830.733337,112.519994 829.944,113.736 C829.154663,114.952006 828.461336,116.199994 827.864,117.48 C829.570675,116.370661 831.373324,115.10134 833.272,113.672 C835.170676,112.24266 837.015991,110.866673 838.808,109.544 C839.661338,108.818663 840.589328,108.104004 841.592,107.4 C842.594672,106.695996 843.565329,105.960004 844.504,105.192 C844.760001,104.978666 845.090665,104.712002 845.496,104.392 C845.901335,104.071998 846.306665,103.773335 846.712,103.496 C847.117335,103.218665 847.479998,102.962668 847.8,102.728 C848.120002,102.493332 848.343999,102.376 848.472,102.376 C848.813335,102.290666 849.090666,102.365332 849.304,102.6 C849.517334,102.834668 849.581334,103.101332 849.496,103.4 C849.496,103.485334 849.410668,103.634666 849.24,103.848 C849.069332,104.061334 848.877334,104.295999 848.664,104.552 C848.450666,104.808001 848.248001,105.042666 848.056,105.256 C847.863999,105.469334 847.746667,105.618666 847.704,105.704 C847.02133,106.472004 846.264004,107.367995 845.432,108.392 C844.599996,109.416005 843.789337,110.407995 843,111.368 C842.210663,112.328005 841.528003,113.170663 840.952,113.896 C840.375997,114.621337 840.002668,115.090666 839.832,115.304 C840.216002,115.047999 840.738663,114.706669 841.4,114.28 C842.061337,113.853331 842.583998,113.490668 842.968,113.192 C844.162673,112.381329 845.37866,111.60267 846.616,110.856 C847.85334,110.10933 849.133327,109.39467 850.456,108.712 C850.541334,108.626666 850.754665,108.498668 851.096,108.328 C851.437335,108.157332 851.650666,108.114666 851.736,108.2 Z M846.486709,90.762406 C846.220607,89.9916569 846.065383,89.3493757 846.021032,88.8355429 C845.976682,88.3217102 845.998857,87.9363415 846.087557,87.6794251 C846.176258,87.4225087 846.309307,87.2779955 846.486709,87.2458809 C846.664111,87.2137664 846.83264,87.2940515 846.992301,87.4867388 C847.311624,87.6794261 847.657552,87.9845097 848.030095,88.4019987 C848.402639,88.8194878 848.788482,89.2851417 849.187635,89.7989745 C849.586789,90.3128072 849.981501,90.8426892 850.371785,91.3886365 C850.762069,91.9345837 851.125736,92.4323517 851.4628,92.8819553 C851.799863,93.3957881 852.145791,93.877499 852.500594,94.3271026 C852.855397,94.7767063 853.18802,95.2102461 853.498473,95.6277352 C853.808926,96.0452243 854.070589,96.414536 854.283471,96.7356814 C854.496353,97.0568269 854.629402,97.3137394 854.682623,97.5064267 C854.629402,97.4421976 854.412089,97.2976843 854.030675,97.0728825 C853.649262,96.8480807 853.188024,96.5751111 852.646949,96.2539657 C852.105874,95.9328202 851.511588,95.5635085 850.864072,95.1460194 C850.216556,94.7285303 849.600095,94.2949905 849.014669,93.8453869 C848.429244,93.3957832 847.905917,92.9140723 847.444673,92.4002396 C846.983429,91.8864069 846.664111,91.3404678 846.486709,90.762406 Z" transform="translate(-513 -60)"/>
</svg>
