<svg xmlns="http://www.w3.org/2000/svg" width="482" height="67" viewBox="0 0 482 67">
  <g fill="#444444" fill-rule="evenodd">
    <path d="M31.375 13.125L31.375 19.375 6.375 19.375 6.375 31.875 25.125 31.875 25.125 38.125 6.375 38.125 6.375 56.875.125 56.875.125 13.125 31.375 13.125zM43.875 19.375L43.875 31.875 59.5 31.875 59.5 28.75 62.625 28.75 62.625 22.5 59.5 22.5 59.5 19.375 43.875 19.375zM47 38.125L43.875 38.125 43.875 56.875 37.625 56.875 37.625 13.125 62.625 13.125 62.625 16.25 65.75 16.25 65.75 19.375 68.875 19.375 68.875 31.875 65.75 31.875 65.75 35 62.625 35 62.625 38.125 56.375 38.125 56.375 41.25 59.5 41.25 59.5 44.375 62.625 44.375 62.625 47.5 65.75 47.5 65.75 50.625 68.875 50.625 68.875 56.875 62.625 56.875 62.625 53.75 59.5 53.75 59.5 50.625 56.375 50.625 56.375 47.5 53.25 47.5 53.25 44.375 50.125 44.375 50.125 41.25 47 41.25 47 38.125zM81.375 38.125L100.125 38.125 100.125 28.75 97 28.75 97 25.625 93.875 25.625 93.875 22.5 87.625 22.5 87.625 25.625 84.5 25.625 84.5 28.75 81.375 28.75 81.375 38.125zM81.375 56.875L75.125 56.875 75.125 25.625 78.25 25.625 78.25 22.5 81.375 22.5 81.375 19.375 84.5 19.375 84.5 16.25 87.625 16.25 87.625 13.125 93.875 13.125 93.875 16.25 97 16.25 97 19.375 100.125 19.375 100.125 22.5 103.25 22.5 103.25 25.625 106.375 25.625 106.375 56.875 100.125 56.875 100.125 44.375 81.375 44.375 81.375 56.875zM118.875 31.875L118.875 56.875 112.625 56.875 112.625 13.125 118.875 13.125 118.875 22.5 122 22.5 122 25.625 125.125 25.625 125.125 28.75 128.25 28.75 128.25 31.875 131.375 31.875 131.375 35 134.5 35 134.5 38.125 137.625 38.125 137.625 13.125 143.875 13.125 143.875 56.875 137.625 56.875 137.625 47.5 134.5 47.5 134.5 44.375 131.375 44.375 131.375 41.25 128.25 41.25 128.25 38.125 125.125 38.125 125.125 35 122 35 122 31.875 118.875 31.875zM159.5 50.625L172 50.625 172 47.5 175.125 47.5 175.125 44.375 181.375 44.375 181.375 50.625 178.25 50.625 178.25 53.75 175.125 53.75 175.125 56.875 156.375 56.875 156.375 53.75 153.25 53.75 153.25 50.625 150.125 50.625 150.125 19.375 153.25 19.375 153.25 16.25 156.375 16.25 156.375 13.125 175.125 13.125 175.125 16.25 178.25 16.25 178.25 19.375 181.375 19.375 181.375 25.625 175.125 25.625 175.125 22.5 172 22.5 172 19.375 159.5 19.375 159.5 22.5 156.375 22.5 156.375 47.5 159.5 47.5 159.5 50.625zM209.5 19.375L197 19.375 197 22.5 193.875 22.5 193.875 47.5 197 47.5 197 50.625 209.5 50.625 209.5 47.5 212.625 47.5 212.625 22.5 209.5 22.5 209.5 19.375zM193.875 16.25L193.875 13.125 212.625 13.125 212.625 16.25 215.75 16.25 215.75 19.375 218.875 19.375 218.875 50.625 215.75 50.625 215.75 53.75 212.625 53.75 212.625 56.875 193.875 56.875 193.875 53.75 190.75 53.75 190.75 50.625 187.625 50.625 187.625 19.375 190.75 19.375 190.75 16.25 193.875 16.25zM231.375 56.875L231.375 50.625 237.625 50.625 237.625 19.375 231.375 19.375 231.375 13.125 250.125 13.125 250.125 19.375 243.875 19.375 243.875 50.625 250.125 50.625 250.125 56.875 231.375 56.875zM290.75 19.375L293.875 19.375 293.875 25.625 287.625 25.625 287.625 22.5 284.5 22.5 284.5 19.375 272 19.375 272 22.5 268.875 22.5 268.875 28.75 272 28.75 272 31.875 287.625 31.875 287.625 35 290.75 35 290.75 38.125 293.875 38.125 293.875 50.625 290.75 50.625 290.75 53.75 287.625 53.75 287.625 56.875 268.875 56.875 268.875 53.75 265.75 53.75 265.75 50.625 262.625 50.625 262.625 44.375 268.875 44.375 268.875 47.5 272 47.5 272 50.625 284.5 50.625 284.5 47.5 287.625 47.5 287.625 41.25 284.5 41.25 284.5 38.125 268.875 38.125 268.875 35 265.75 35 265.75 31.875 262.625 31.875 262.625 19.375 265.75 19.375 265.75 16.25 268.875 16.25 268.875 13.125 287.625 13.125 287.625 16.25 290.75 16.25 290.75 19.375zM343.875 19.375L343.875 31.875 359.5 31.875 359.5 28.75 362.625 28.75 362.625 22.5 359.5 22.5 359.5 19.375 343.875 19.375zM343.875 38.125L343.875 56.875 337.625 56.875 337.625 13.125 362.625 13.125 362.625 16.25 365.75 16.25 365.75 19.375 368.875 19.375 368.875 31.875 365.75 31.875 365.75 35 362.625 35 362.625 38.125 343.875 38.125zM381.375 38.125L400.125 38.125 400.125 28.75 397 28.75 397 25.625 393.875 25.625 393.875 22.5 387.625 22.5 387.625 25.625 384.5 25.625 384.5 28.75 381.375 28.75 381.375 38.125zM381.375 56.875L375.125 56.875 375.125 25.625 378.25 25.625 378.25 22.5 381.375 22.5 381.375 19.375 384.5 19.375 384.5 16.25 387.625 16.25 387.625 13.125 393.875 13.125 393.875 16.25 397 16.25 397 19.375 400.125 19.375 400.125 22.5 403.25 22.5 403.25 25.625 406.375 25.625 406.375 56.875 400.125 56.875 400.125 44.375 381.375 44.375 381.375 56.875zM412.625 56.875L412.625 13.125 418.875 13.125 418.875 50.625 443.875 50.625 443.875 56.875 412.625 56.875zM456.375 38.125L475.125 38.125 475.125 28.75 472 28.75 472 25.625 468.875 25.625 468.875 22.5 462.625 22.5 462.625 25.625 459.5 25.625 459.5 28.75 456.375 28.75 456.375 38.125zM456.375 56.875L450.125 56.875 450.125 25.625 453.25 25.625 453.25 22.5 456.375 22.5 456.375 19.375 459.5 19.375 459.5 16.25 462.625 16.25 462.625 13.125 468.875 13.125 468.875 16.25 472 16.25 472 19.375 475.125 19.375 475.125 22.5 478.25 22.5 478.25 25.625 481.375 25.625 481.375 56.875 475.125 56.875 475.125 44.375 456.375 44.375 456.375 56.875zM465.75.875L465.75 4 468.875 4 468.875 7.125 472 7.125 472 10.25 465.75 10.25 465.75 7.125 459.5 7.125 459.5 4 456.375 4 456.375.875 465.75.875zM169 56.875L169 60 165.875 60 165.875 63.125 162.75 63.125 162.75 66.25 153.375 66.25 153.375 63.125 156.5 63.125 156.5 60 159.625 60 159.625 56.875 169 56.875z"/>
  </g>
</svg>
